<svg width="356" height="109" viewBox="0 0 356 109" fill="none" xmlns="http://www.w3.org/2000/svg">
<path d="M75.9604 36.0351H66.5719L72.6551 28.2585C72.6766 28.2302 72.6973 28.2012 72.7161 28.1715C74.2651 25.7186 75.0843 22.9199 75.0843 20.0789C75.0843 11.7643 68.4467 5 60.287 5C54.0576 5 48.7146 8.95016 46.5411 14.5234C44.3669 8.95016 39.0226 5 32.7911 5C24.6349 5 18 11.7643 18 20.0789C18 23.2819 19.0168 26.3753 20.9636 29.0566L45.7302 60.6027C45.9277 60.8537 46.2258 61 46.5418 61C46.8579 61 47.1573 60.853 47.3541 60.6013L64.9127 38.1551H75.9604C76.5342 38.1551 77 37.68 77 37.0947C77 36.5094 76.5342 36.0351 75.9604 36.0351ZM20.0792 20.0789C20.0792 12.9343 25.7819 7.1207 32.7911 7.1207C39.8002 7.1207 45.5022 12.9336 45.5022 20.0789C45.5022 20.6649 45.9672 21.1393 46.5418 21.1393C47.1164 21.1393 47.5814 20.6649 47.5814 20.0789C47.5814 12.9343 53.2813 7.1207 60.287 7.1207C67.2996 7.1207 73.0051 12.9336 73.0051 20.0789C73.0051 22.4944 72.3106 24.8795 70.9965 26.9783L63.9118 36.0351H56.5305L53.0596 23.5427C52.9293 23.074 52.528 22.7588 52.0234 22.7722C51.5459 22.7892 51.1404 23.1363 51.042 23.6134L46.6236 45.0643L42.4457 23.6247C42.3521 23.1433 41.9467 22.7906 41.4657 22.7715C40.9771 22.7651 40.5543 23.0733 40.4247 23.5463L37.4243 34.5124H28.1578C28.0795 34.5124 28.0046 34.523 27.9312 34.5393L22.6104 27.7622C20.9546 25.481 20.0792 22.8238 20.0792 20.0789ZM46.5404 58.2424L29.5752 36.6331H38.2137C38.6802 36.6331 39.0898 36.3164 39.2152 35.8576L41.2557 28.3984L45.575 50.5654C45.6713 51.0596 46.0948 51.4165 46.5889 51.4194C46.591 51.4194 46.5924 51.4194 46.5945 51.4194C47.0859 51.4194 47.5107 51.068 47.6119 50.5774L52.2091 28.2606L54.7437 37.3846C54.8713 37.8412 55.2788 38.1558 55.7439 38.1558H62.2519L46.5404 58.2424Z" fill="#CECFD3"/>
<path d="M87.6618 81.9853C88.9588 80.1837 89.6405 78.1636 89.6405 76.1049C89.6405 69.4303 82.6244 64 74.0003 64C65.3756 64 58.359 69.4303 58.359 76.1049C58.359 78.1636 59.0407 80.1837 60.3382 81.9853C57.5355 85.224 56 89.3112 56 93.5683C56 99.8118 59.364 105.682 64.7786 108.888C64.9027 108.961 65.0443 109 65.1887 109C65.1897 109 65.1908 109 65.1919 109L82.9269 108.932C83.0718 108.932 83.2145 108.892 83.3386 108.817C88.7622 105.55 92 99.8493 92 93.5678C91.9995 89.3101 90.4634 85.2234 87.6618 81.9853ZM82.6957 107.35L65.4108 107.416C60.5858 104.471 57.5978 99.1849 57.5978 93.5683C57.5978 89.4901 59.1462 85.5818 61.9578 82.5632C62.2257 82.2756 62.2412 81.837 61.9941 81.5315C60.6614 79.8829 59.9568 78.0068 59.9568 76.1054C59.9568 70.3037 66.2566 65.5837 74.0003 65.5837C81.7434 65.5837 88.0427 70.3037 88.0427 76.1054C88.0427 78.0074 87.3386 79.8839 86.0059 81.5315C85.7588 81.837 85.7743 82.2756 86.0422 82.5632C88.8528 85.5812 90.4016 89.4895 90.4022 93.5683C90.4022 99.2192 87.5255 104.355 82.6957 107.35Z" fill="#CECFD3"/>
<path d="M83.1355 79.9995C83.187 79.9995 83.2386 79.995 83.2901 79.9855C83.4994 79.9467 83.6826 79.8307 83.8006 79.6639C84.5963 78.5335 85 77.3274 85 76.078C85 71.6237 79.8411 68 73.5008 68C67.1605 68 62.0011 71.6237 62 76.078C62 77.3269 62.4032 78.5335 63.1978 79.6639C63.3152 79.8307 63.499 79.9467 63.7083 79.9855C63.9176 80.0249 64.1349 79.9831 64.3112 79.8705C67.0288 78.1381 70.2058 77.2223 73.4992 77.2223C76.7926 77.2223 79.9702 78.1381 82.6872 79.8705C82.8205 79.9547 82.9767 79.9995 83.1355 79.9995ZM64.1349 78.1988C63.7752 77.5122 63.593 76.8011 63.593 76.078C63.5941 72.4473 68.0386 69.4939 73.5003 69.4939C78.9625 69.4939 83.4059 72.4473 83.4059 76.078C83.4059 76.8016 83.2237 77.5122 82.8636 78.1993C80.0461 76.58 76.8266 75.7284 73.4987 75.7284C70.1718 75.7279 66.9523 76.58 64.1349 78.1988Z" fill="#CECFD3"/>
<path d="M75.7879 83C75.353 83 75 83.3493 75 83.781C75 84.2126 75.353 84.5619 75.7879 84.5619C80.5499 84.5619 84.4242 88.4453 84.4242 93.219C84.4242 93.6501 84.7772 94 85.2121 94C85.647 94 86 93.6501 86 93.219C86.0005 87.5842 81.4192 83 75.7879 83Z" fill="#CECFD3"/>
<path d="M42.7635 79.678H0.792308C0.354426 79.678 0 80.0325 0 80.4704V84.855C0 85.0663 0.0845127 85.2697 0.235051 85.4181C0.38559 85.5671 0.595816 85.6447 0.80076 85.6474L16.0078 85.4873V90.6659L0.215508 107.441C-0.00105641 107.671 -0.0602159 108.008 0.0649689 108.298C0.190154 108.589 0.475913 108.776 0.792308 108.776H6.03422C6.20325 108.776 6.36805 108.722 6.50432 108.621L20.7875 98.0872H29.0508V107.984C29.0508 108.421 29.4057 108.776 29.8431 108.776H35.666C36.1034 108.776 36.4583 108.421 36.4583 107.984V92.8448C36.4583 92.4074 36.1034 92.0524 35.666 92.0524H27.6083V85.6474H42.7635C43.2009 85.6474 43.5558 85.2929 43.5558 84.855V80.4704C43.5558 80.0325 43.2014 79.678 42.7635 79.678ZM41.9712 84.0627H26.8159C26.3786 84.0627 26.0236 84.4171 26.0236 84.855V92.8448C26.0236 93.2821 26.3786 93.6371 26.8159 93.6371H34.8737V107.191H30.6354V97.2949C30.6354 96.8576 30.2804 96.5026 29.8431 96.5026H20.5271C20.3581 96.5026 20.1933 96.557 20.057 96.6574L5.77382 107.191H2.62677L17.3764 91.5226C17.5148 91.3758 17.5919 91.1814 17.5919 90.9796V84.6865C17.5919 84.4753 17.5074 84.2719 17.3568 84.1235C17.2063 83.9745 16.976 83.8953 16.7911 83.8942L1.58409 84.0543V81.2627H41.9707V84.0627H41.9712Z" fill="#CECFD3"/>
<path d="M21.7784 75.2057C24.9118 75.2057 27.4604 72.6565 27.4604 69.5237C27.4604 66.3909 24.9118 63.8418 21.7784 63.8418C18.6457 63.8418 16.0965 66.3909 16.0965 69.5237C16.0965 72.6565 18.6457 75.2057 21.7784 75.2057ZM21.7784 65.4264C24.0376 65.4264 25.8757 67.264 25.8757 69.5237C25.8757 71.7834 24.0381 73.621 21.7784 73.621C19.5188 73.621 17.6812 71.7834 17.6812 69.5237C17.6812 67.264 19.5193 65.4264 21.7784 65.4264Z" fill="#CECFD3"/>
<path d="M153.048 41.528C153.389 41.528 153.688 41.6667 153.944 41.944L156.408 44.6C154.531 46.776 152.248 48.472 149.56 49.688C146.893 50.904 143.661 51.512 139.864 51.512C136.579 51.512 133.592 50.9467 130.904 49.816C128.216 48.664 125.923 47.064 124.024 45.016C122.125 42.9467 120.653 40.472 119.608 37.592C118.563 34.712 118.04 31.544 118.04 28.088C118.04 24.632 118.584 21.464 119.672 18.584C120.76 15.704 122.285 13.2293 124.248 11.16C126.232 9.09067 128.6 7.49067 131.352 6.36C134.104 5.208 137.144 4.632 140.472 4.632C143.736 4.632 146.616 5.15466 149.112 6.2C151.608 7.24533 153.805 8.664 155.704 10.456L153.656 13.304C153.528 13.5173 153.357 13.6987 153.144 13.848C152.952 13.976 152.685 14.04 152.344 14.04C151.96 14.04 151.491 13.8373 150.936 13.432C150.381 13.0053 149.656 12.536 148.76 12.024C147.864 11.512 146.744 11.0533 145.4 10.648C144.056 10.2213 142.403 10.008 140.44 10.008C138.072 10.008 135.907 10.424 133.944 11.256C131.981 12.0667 130.285 13.2507 128.856 14.808C127.448 16.3653 126.349 18.264 125.56 20.504C124.771 22.744 124.376 25.272 124.376 28.088C124.376 30.9467 124.781 33.496 125.592 35.736C126.424 37.976 127.544 39.8747 128.952 41.432C130.381 42.968 132.056 44.1413 133.976 44.952C135.917 45.7627 138.008 46.168 140.248 46.168C141.613 46.168 142.84 46.0933 143.928 45.944C145.037 45.7733 146.051 45.5173 146.968 45.176C147.907 44.8347 148.771 44.408 149.56 43.896C150.371 43.3627 151.171 42.7333 151.96 42.008C152.323 41.688 152.685 41.528 153.048 41.528ZM207.979 28.088C207.979 31.5227 207.435 34.68 206.347 37.56C205.259 40.4187 203.723 42.8827 201.739 44.952C199.755 47.0213 197.366 48.632 194.571 49.784C191.798 50.9147 188.726 51.48 185.355 51.48C181.984 51.48 178.912 50.9147 176.139 49.784C173.366 48.632 170.987 47.0213 169.003 44.952C167.019 42.8827 165.483 40.4187 164.395 37.56C163.307 34.68 162.763 31.5227 162.763 28.088C162.763 24.6533 163.307 21.5067 164.395 18.648C165.483 15.768 167.019 13.2933 169.003 11.224C170.987 9.13333 173.366 7.512 176.139 6.36C178.912 5.208 181.984 4.632 185.355 4.632C188.726 4.632 191.798 5.208 194.571 6.36C197.366 7.512 199.755 9.13333 201.739 11.224C203.723 13.2933 205.259 15.768 206.347 18.648C207.435 21.5067 207.979 24.6533 207.979 28.088ZM201.611 28.088C201.611 25.272 201.227 22.744 200.459 20.504C199.691 18.264 198.603 16.376 197.195 14.84C195.787 13.2827 194.08 12.088 192.075 11.256C190.07 10.424 187.83 10.008 185.355 10.008C182.902 10.008 180.672 10.424 178.667 11.256C176.662 12.088 174.944 13.2827 173.515 14.84C172.107 16.376 171.019 18.264 170.251 20.504C169.483 22.744 169.099 25.272 169.099 28.088C169.099 30.904 169.483 33.432 170.251 35.672C171.019 37.8907 172.107 39.7787 173.515 41.336C174.944 42.872 176.662 44.056 178.667 44.888C180.672 45.6987 182.902 46.104 185.355 46.104C187.83 46.104 190.07 45.6987 192.075 44.888C194.08 44.056 195.787 42.872 197.195 41.336C198.603 39.7787 199.691 37.8907 200.459 35.672C201.227 33.432 201.611 30.904 201.611 28.088ZM242.906 33.976L235.706 15.32C235.492 14.7653 235.268 14.1253 235.034 13.4C234.799 12.6533 234.575 11.864 234.362 11.032C233.914 12.76 233.455 14.2 232.986 15.352L225.786 33.976H242.906ZM255.834 51H251.034C250.479 51 250.031 50.8613 249.69 50.584C249.348 50.3067 249.092 49.9547 248.922 49.528L244.634 38.456H224.058L219.77 49.528C219.642 49.912 219.396 50.2533 219.034 50.552C218.671 50.8507 218.223 51 217.69 51H212.89L231.226 5.144H237.498L255.834 51ZM295.75 41.528C296.092 41.528 296.391 41.6667 296.646 41.944L299.111 44.6C297.233 46.776 294.951 48.472 292.263 49.688C289.596 50.904 286.364 51.512 282.566 51.512C279.281 51.512 276.295 50.9467 273.606 49.816C270.918 48.664 268.625 47.064 266.726 45.016C264.828 42.9467 263.356 40.472 262.31 37.592C261.265 34.712 260.742 31.544 260.742 28.088C260.742 24.632 261.286 21.464 262.374 18.584C263.462 15.704 264.988 13.2293 266.95 11.16C268.935 9.09067 271.303 7.49067 274.055 6.36C276.807 5.208 279.847 4.632 283.175 4.632C286.439 4.632 289.319 5.15466 291.815 6.2C294.311 7.24533 296.508 8.664 298.407 10.456L296.359 13.304C296.231 13.5173 296.06 13.6987 295.847 13.848C295.655 13.976 295.388 14.04 295.047 14.04C294.663 14.04 294.193 13.8373 293.639 13.432C293.084 13.0053 292.359 12.536 291.463 12.024C290.567 11.512 289.447 11.0533 288.103 10.648C286.759 10.2213 285.105 10.008 283.142 10.008C280.774 10.008 278.609 10.424 276.646 11.256C274.684 12.0667 272.988 13.2507 271.559 14.808C270.15 16.3653 269.052 18.264 268.262 20.504C267.473 22.744 267.078 25.272 267.078 28.088C267.078 30.9467 267.484 33.496 268.295 35.736C269.126 37.976 270.246 39.8747 271.655 41.432C273.084 42.968 274.759 44.1413 276.679 44.952C278.62 45.7627 280.711 46.168 282.951 46.168C284.316 46.168 285.543 46.0933 286.631 45.944C287.74 45.7733 288.753 45.5173 289.671 45.176C290.609 44.8347 291.473 44.408 292.263 43.896C293.073 43.3627 293.873 42.7333 294.663 42.008C295.025 41.688 295.388 41.528 295.75 41.528ZM346.341 5.144V51H340.133V30.136H315.397V51H309.189V5.144H315.397V25.592H340.133V5.144H346.341ZM158.008 62.144V108H151.8V87.136H127.064V108H120.856V62.144H127.064V82.592H151.8V62.144H158.008ZM190.307 103.072C192.206 103.072 193.902 102.752 195.395 102.112C196.888 101.472 198.147 100.576 199.171 99.424C200.216 98.272 201.006 96.896 201.539 95.296C202.094 93.696 202.371 91.936 202.371 90.016V62.144H208.547V90.016C208.547 92.6613 208.12 95.1147 207.267 97.376C206.435 99.6373 205.23 101.6 203.651 103.264C202.094 104.907 200.184 106.197 197.923 107.136C195.662 108.075 193.123 108.544 190.307 108.544C187.491 108.544 184.952 108.075 182.691 107.136C180.43 106.197 178.51 104.907 176.931 103.264C175.352 101.6 174.136 99.6373 173.283 97.376C172.451 95.1147 172.035 92.6613 172.035 90.016V62.144H178.211V89.984C178.211 91.904 178.478 93.664 179.011 95.264C179.566 96.864 180.355 98.24 181.379 99.392C182.424 100.544 183.694 101.451 185.187 102.112C186.702 102.752 188.408 103.072 190.307 103.072ZM238.65 103.072C240.42 103.072 241.946 102.869 243.226 102.464C244.506 102.059 245.551 101.493 246.362 100.768C247.194 100.021 247.802 99.1467 248.186 98.144C248.57 97.12 248.762 96 248.762 94.784C248.762 92.416 247.919 90.5493 246.234 89.184C244.548 87.7973 242.02 87.104 238.65 87.104H228.73V103.072H238.65ZM228.73 67.04V82.688H236.922C238.671 82.688 240.186 82.496 241.466 82.112C242.767 81.728 243.834 81.1947 244.666 80.512C245.519 79.8293 246.148 79.008 246.554 78.048C246.959 77.0667 247.162 76 247.162 74.848C247.162 72.1387 246.351 70.1653 244.73 68.928C243.108 67.6693 240.591 67.04 237.178 67.04H228.73ZM237.178 62.144C239.994 62.144 242.415 62.4213 244.442 62.976C246.49 63.5307 248.164 64.32 249.466 65.344C250.788 66.368 251.759 67.6267 252.378 69.12C252.996 70.592 253.306 72.256 253.306 74.112C253.306 75.2427 253.124 76.3307 252.762 77.376C252.42 78.4 251.898 79.36 251.194 80.256C250.49 81.152 249.594 81.9627 248.506 82.688C247.439 83.392 246.18 83.968 244.73 84.416C248.1 85.056 250.628 86.2613 252.314 88.032C254.02 89.7813 254.874 92.0853 254.874 94.944C254.874 96.8853 254.511 98.656 253.786 100.256C253.082 101.856 252.036 103.232 250.65 104.384C249.284 105.536 247.599 106.432 245.594 107.072C243.588 107.691 241.306 108 238.746 108H222.554V62.144H237.178Z" fill="#CECFD3"/>
<line x1="105.5" y1="5" x2="105.5" y2="109" stroke="#FF9187" stroke-width="3"/>
</svg>
